<?xml version="1.0" standalone="no"?>
<!DOCTYPE svg PUBLIC "-//W3C//DTD SVG 20010904//EN"
 "http://www.w3.org/TR/2001/REC-SVG-20010904/DTD/svg10.dtd">
<svg version="1.0" xmlns="http://www.w3.org/2000/svg"
 width="300.000000pt" height="297.000000pt" viewBox="0 0 300.000000 297.000000"
 preserveAspectRatio="xMidYMid meet">
<metadata>
Created by potrace 1.10, written by Peter Selinger 2001-2011
</metadata>
<g transform="translate(0.000000,297.000000) scale(0.100000,-0.100000)"
fill="#000000" stroke="none">
<path d="M1300 2725 c-327 -66 -560 -314 -560 -597 0 -162 52 -281 175 -404
141 -142 326 -215 545 -215 177 -1 316 38 450 126 126 83 221 205 262 338 27
89 22 242 -10 331 -95 262 -381 438 -705 435 -51 0 -121 -7 -157 -14z m380
-45 c285 -80 480 -307 480 -558 0 -251 -177 -460 -470 -553 -65 -21 -94 -24
-225 -24 -129 0 -161 4 -225 24 -240 74 -401 229 -455 436 -45 175 10 351 155
495 106 106 248 176 415 203 65 11 251 -2 325 -23z"/>
<path d="M600 1493 c-240 -40 -450 -186 -539 -373 -22 -47 -42 -107 -46 -135
-3 -35 -2 -44 4 -30 9 19 10 18 11 -5 1 -14 7 -1 15 32 27 125 111 253 218
334 382 288 983 148 1133 -263 71 -195 13 -412 -152 -562 -148 -136 -344 -201
-562 -188 -124 7 -195 26 -310 83 -164 80 -291 234 -326 396 -8 35 -15 52 -16
38 -1 -23 -2 -24 -11 -5 -18 38 2 -77 22 -128 76 -193 270 -346 509 -402 95
-22 276 -20 377 5 160 38 302 122 393 231 303 364 87 857 -422 964 -64 14
-237 18 -298 8z"/>
<path d="M2090 1493 c-267 -45 -490 -216 -568 -437 -52 -146 -29 -331 58 -464
132 -205 365 -322 640 -322 300 0 555 141 671 372 177 351 -69 760 -508 844
-69 13 -234 17 -293 7z m350 -53 c214 -60 393 -219 452 -402 26 -80 28 -220 4
-298 -58 -196 -236 -350 -486 -421 -71 -20 -311 -18 -390 4 -193 52 -350 168
-429 316 -46 86 -61 145 -61 236 0 222 121 405 340 515 51 25 175 63 245 74
66 10 251 -4 325 -24z"/>
</g>
</svg>
